{
  "accessors": [
    {
      "bufferView": 2,
      "componentType": 5126,
      "count": 80,
      "max": [
        1.4142135381698608,
        1.4142135381698608,
        6.0
      ],
      "min": [
        -1.4142135381698608,
        -1.0703293085098267,
        -1.0
      ],
      "type": "VEC3"
    },
    {
      "bufferView": 2,
      "byteOffset": 960,
      "componentType": 5126,
      "count": 80,
      "max": [
        0.9609746932983398,
        0.693375289440155,
        0.5739297270774841
      ],
      "min": [
        -0.9609748721122742,
        -1.0,
        -0.44721361994743347
      ],
      "type": "VEC3"
    },
    {
      "bufferView": 3,
      "componentType": 5126,
      "count": 80,
      "max": [
        0.9622506499290466,
        0.9940751194953918,
        0.9078543782234192,
        1.0
      ],
      "min": [
        -0.6672008037567139,
        -0.9986743330955505,
        -0.980580747127533,
        1.0
      ],
      "type": "VEC4"
    },
    {
      "bufferView": 1,
      "componentType": 5126,
      "count": 80,
      "max": [
        0.9721235036849976,
        0.8370803594589233
      ],
      "min": [
        0.0004537496715784073,
        0.0004537496715784073
      ],
      "type": "VEC2"
    },
    {
      "bufferView": 0,
      "componentType": 5125,
      "count": 114,
      "type": "SCALAR"
    },
    {
      "bufferView": 2,
      "byteOffset": 1920,
      "componentType": 5126,
      "count": 174,
      "max": [
        0.9999998211860657,
        0.9999998211860657,
        1.0
      ],
      "min": [
        -0.9999998211860657,
        -0.9797355532646179,
        -1.0
      ],
      "type": "VEC3"
    },
    {
      "bufferView": 2,
      "byteOffset": 4008,
      "componentType": 5126,
      "count": 174,
      "max": [
        0.9999232292175293,
        1.0,
        1.0
      ],
      "min": [
        -0.9999232292175293,
        -1.0,
        -1.0
      ],
      "type": "VEC3"
    },
    {
      "bufferView": 3,
      "byteOffset": 1280,
      "componentType": 5126,
      "count": 174,
      "max": [
        0.9807643890380859,
        0.9921514391899109,
        0.9071183204650879,
        1.0
      ],
      "min": [
        -0.9111983180046082,
        -0.9921514987945557,
        -0.9951004385948181,
        1.0
      ],
      "type": "VEC4"
    },
    {
      "bufferView": 1,
      "byteOffset": 640,
      "componentType": 5126,
      "count": 174,
      "max": [
        0.852760374546051,
        0.8882145285606384
      ],
      "min": [
        0.0004537496715784073,
        0.0004537496715784073
      ],
      "type": "VEC2"
    },
    {
      "bufferView": 0,
      "byteOffset": 456,
      "componentType": 5125,
      "count": 612,
      "type": "SCALAR"
    },
    {
      "bufferView": 2,
      "byteOffset": 6096,
      "componentType": 5126,
      "count": 588,
      "max": [
        1.2179938554763794,
        0.18549108505249023,
        1.186126947402954
      ],
      "min": [
        -0.5187954902648926,
        -1.324094533920288,
        -1.0654499530792236
      ],
      "type": "VEC3"
    },
    {
      "bufferView": 2,
      "byteOffset": 13152,
      "componentType": 5126,
      "count": 588,
      "max": [
        0.9971126914024353,
        0.9942348599433899,
        0.7337141633033752
      ],
      "min": [
        -0.995277464389801,
        -0.9937801361083984,
        -0.7391305565834045
      ],
      "type": "VEC3"
    },
    {
      "bufferView": 3,
      "byteOffset": 4064,
      "componentType": 5126,
      "count": 588,
      "max": [
        0.9754046201705933,
        0.9890682101249695,
        0.7992559671401978,
        1.0
      ],
      "min": [
        -0.9766207337379456,
        -0.9898611307144165,
        -0.7947444915771484,
        1.0
      ],
      "type": "VEC4"
    },
    {
      "bufferView": 1,
      "byteOffset": 2032,
      "componentType": 5126,
      "count": 588,
      "max": [
        0.9883987903594971,
        0.9386032223701477
      ],
      "min": [
        0.42785757780075073,
        0.3157806694507599
      ],
      "type": "VEC2"
    },
    {
      "bufferView": 0,
      "byteOffset": 2904,
      "componentType": 5125,
      "count": 2772,
      "type": "SCALAR"
    },
    {
      "bufferView": 2,
      "byteOffset": 20208,
      "componentType": 5126,
      "count": 24,
      "max": [
        0.4460057318210602,
        0.7152212262153625,
        0.3640362024307251
      ],
      "min": [
        -0.461866170167923,
        -0.6989923119544983,
        -0.3525606393814087
      ],
      "type": "VEC3"
    },
    {
      "bufferView": 2,
      "byteOffset": 20496,
      "componentType": 5126,
      "count": 24,
      "max": [
        0.9997434616088867,
        0.6324555277824402,
        0.44721361994743347
      ],
      "min": [
        -0.6324555277824402,
        -0.7960950136184692,
        -0.9803797602653503
      ],
      "type": "VEC3"
    },
    {
      "bufferView": 3,
      "byteOffset": 13472,
      "componentType": 5126,
      "count": 24,
      "max": [
        0.9753086566925049,
        0.6591812968254089,
        0.9632524251937866,
        1.0
      ],
      "min": [
        -0.5859960913658142,
        -0.9346965551376343,
        0.16026559472084045,
        -1.0
      ],
      "type": "VEC4"
    },
    {
      "bufferView": 1,
      "byteOffset": 6736,
      "componentType": 5126,
      "count": 24,
      "max": [
        0.751278817653656,
        0.316200315952301
      ],
      "min": [
        0.6721343994140625,
        0.18109649419784546
      ],
      "type": "VEC2"
    },
    {
      "bufferView": 0,
      "byteOffset": 13992,
      "componentType": 5125,
      "count": 36,
      "type": "SCALAR"
    },
    {
      "bufferView": 2,
      "byteOffset": 20784,
      "componentType": 5126,
      "count": 24,
      "max": [
        0.44694918394088745,
        0.714616060256958,
        0.8938555717468262
      ],
      "min": [
        -0.4630509614944458,
        -0.6995974779129028,
        -0.9017388820648193
      ],
      "type": "VEC3"
    },
    {
      "bufferView": 2,
      "byteOffset": 21072,
      "componentType": 5126,
      "count": 24,
      "max": [
        0.9883989095687866,
        0.693375289440155,
        0.9455277323722839
      ],
      "min": [
        -0.693375289440155,
        -0.9524879455566406,
        -0.6528466939926147
      ],
      "type": "VEC3"
    },
    {
      "bufferView": 3,
      "byteOffset": 13856,
      "componentType": 5126,
      "count": 24,
      "max": [
        0.989824116230011,
        0.9279305934906006,
        0.7353818416595459,
        1.0
      ],
      "min": [
        -0.15145565569400787,
        -0.2892244756221771,
        -0.9643537402153015,
        -1.0
      ],
      "type": "VEC4"
    },
    {
      "bufferView": 1,
      "byteOffset": 6928,
      "componentType": 5126,
      "count": 24,
      "max": [
        0.9767979383468628,
        0.17974892258644104
      ],
      "min": [
        0.8536679148674011,
        0.0004537496715784073
      ],
      "type": "VEC2"
    },
    {
      "bufferView": 0,
      "byteOffset": 14136,
      "componentType": 5125,
      "count": 36,
      "type": "SCALAR"
    },
    {
      "bufferView": 2,
      "byteOffset": 21360,
      "componentType": 5126,
      "count": 24,
      "max": [
        0.46206748485565186,
        0.7160028219223022,
        0.8952809572219849
      ],
      "min": [
        -0.4459657073020935,
        -0.6982107162475586,
        -0.9003134965896606
      ],
      "type": "VEC3"
    },
    {
      "bufferView": 2,
      "byteOffset": 21648,
      "componentType": 5126,
      "count": 24,
      "max": [
        0.693375289440155,
        0.693375289440155,
        0.8939685225486755
      ],
      "min": [
        -0.9945873022079468,
        -0.9524879455566406,
        -0.6528439521789551
      ],
      "type": "VEC3"
    },
    {
      "bufferView": 3,
      "byteOffset": 14240,
      "componentType": 5126,
      "count": 24,
      "max": [
        0.9761290550231934,
        0.2980211079120636,
        0.9210237264633179,
        1.0
      ],
      "min": [
        -0.1024630218744278,
        -0.8985969424247742,
        -0.7092875838279724,
        -1.0
      ],
      "type": "VEC4"
    },
    {
      "bufferView": 1,
      "byteOffset": 7120,
      "componentType": 5126,
      "count": 24,
      "max": [
        0.30122753977775574,
        0.91811203956604
      ],
      "min": [
        0.164412721991539,
        0.7249709963798523
      ],
      "type": "VEC2"
    },
    {
      "bufferView": 0,
      "byteOffset": 14280,
      "componentType": 5125,
      "count": 36,
      "type": "SCALAR"
    },
    {
      "bufferView": 2,
      "byteOffset": 21936,
      "componentType": 5126,
      "count": 24,
      "max": [
        0.46128594875335693,
        0.7146411538124084,
        0.3640362024307251
      ],
      "min": [
        -0.44542551040649414,
        -0.6984121799468994,
        -0.3525606393814087
      ],
      "type": "VEC3"
    },
    {
      "bufferView": 2,
      "byteOffset": 22224,
      "componentType": 5126,
      "count": 24,
      "max": [
        0.6324555277824402,
        0.6324555277824402,
        0.4472135603427887
      ],
      "min": [
        -0.9997435212135315,
        -0.7960957884788513,
        -0.980379581451416
      ],
      "type": "VEC3"
    },
    {
      "bufferView": 3,
      "byteOffset": 14624,
      "componentType": 5126,
      "count": 24,
      "max": [
        0.5802689790725708,
        0.6655337810516357,
        0.9621425271034241,
        1.0
      ],
      "min": [
        -0.9779524803161621,
        -0.9308702945709229,
        0.15838921070098877,
        -1.0
      ],
      "type": "VEC4"
    },
    {
      "bufferView": 1,
      "byteOffset": 7312,
      "componentType": 5126,
      "count": 24,
      "max": [
        0.8312950730323792,
        0.31605833768844604
      ],
      "min": [
        0.7521862983703613,
        0.18109649419784546
      ],
      "type": "VEC2"
    },
    {
      "bufferView": 0,
      "byteOffset": 14424,
      "componentType": 5125,
      "count": 36,
      "type": "SCALAR"
    }
  ],
  "asset": {
    "extras": {
      "author": "Sahir Virmani (https://sketchfab.com/sahirvirmani)",
      "license": "CC-BY-4.0 (http://creativecommons.org/licenses/by/4.0/)",
      "source": "https://sketchfab.com/3d-models/alien-beacon-dbf31251971c408d9185a7d034673acd",
      "title": "Alien Beacon"
    },
    "generator": "Sketchfab-12.68.0",
    "version": "2.0"
  },
  "bufferViews": [
    {
      "buffer": 0,
      "byteLength": 14568,
      "name": "floatBufferViews",
      "target": 34963
    },
    {
      "buffer": 0,
      "byteLength": 7504,
      "byteOffset": 14568,
      "byteStride": 8,
      "name": "floatBufferViews",
      "target": 34962
    },
    {
      "buffer": 0,
      "byteLength": 22512,
      "byteOffset": 22072,
      "byteStride": 12,
      "name": "floatBufferViews",
      "target": 34962
    },
    {
      "buffer": 0,
      "byteLength": 15008,
      "byteOffset": 44584,
      "byteStride": 16,
      "name": "floatBufferViews",
      "target": 34962
    }
  ],
  "buffers": [
    {
      "byteLength": 59592,
      "uri": "scene.bin"
    }
  ],
  "images": [
    {
      "uri": "textures/beacon_baseColor.png"
    },
    {
      "uri": "textures/beacon_metallicRoughness.png"
    },
    {
      "uri": "textures/beacon_normal.png"
    },
    {
      "uri": "textures/material_baseColor.png"
    },
    {
      "uri": "textures/material_metallicRoughness.png"
    },
    {
      "uri": "textures/material_emissive.png"
    },
    {
      "uri": "textures/material_normal.png"
    },
    {
      "uri": "textures/cables_baseColor.png"
    },
    {
      "uri": "textures/cables_metallicRoughness.png"
    },
    {
      "uri": "textures/cables_emissive.png"
    },
    {
      "uri": "textures/cables_normal.png"
    },
    {
      "uri": "textures/plates_baseColor.png"
    },
    {
      "uri": "textures/plates_metallicRoughness.png"
    },
    {
      "uri": "textures/plates_normal.png"
    }
  ],
  "materials": [
    {
      "doubleSided": true,
      "name": "beacon",
      "normalTexture": {
        "index": 2
      },
      "pbrMetallicRoughness": {
        "baseColorTexture": {
          "index": 0
        },
        "metallicRoughnessTexture": {
          "index": 1
        }
      }
    },
    {
      "doubleSided": true,
      "emissiveFactor": [
        1.0,
        1.0,
        1.0
      ],
      "emissiveTexture": {
        "index": 5
      },
      "name": "material",
      "normalTexture": {
        "index": 6
      },
      "pbrMetallicRoughness": {
        "baseColorTexture": {
          "index": 3
        },
        "metallicRoughnessTexture": {
          "index": 4
        }
      }
    },
    {
      "doubleSided": true,
      "emissiveFactor": [
        1.0,
        1.0,
        1.0
      ],
      "emissiveTexture": {
        "index": 9
      },
      "name": "cables",
      "normalTexture": {
        "index": 10
      },
      "pbrMetallicRoughness": {
        "baseColorTexture": {
          "index": 7
        },
        "metallicRoughnessTexture": {
          "index": 8
        }
      }
    },
    {
      "doubleSided": true,
      "name": "plates",
      "normalTexture": {
        "index": 13
      },
      "pbrMetallicRoughness": {
        "baseColorTexture": {
          "index": 11
        },
        "metallicRoughnessTexture": {
          "index": 12
        }
      }
    }
  ],
  "meshes": [
    {
      "name": "Cube_beacon_0",
      "primitives": [
        {
          "attributes": {
            "NORMAL": 1,
            "POSITION": 0,
            "TANGENT": 2,
            "TEXCOORD_0": 3
          },
          "indices": 4,
          "material": 0,
          "mode": 4
        }
      ]
    },
    {
      "name": "Sphere_eye_0",
      "primitives": [
        {
          "attributes": {
            "NORMAL": 6,
            "POSITION": 5,
            "TANGENT": 7,
            "TEXCOORD_0": 8
          },
          "indices": 9,
          "material": 1,
          "mode": 4
        }
      ]
    },
    {
      "name": "Cylinder.002_cables_0",
      "primitives": [
        {
          "attributes": {
            "NORMAL": 11,
            "POSITION": 10,
            "TANGENT": 12,
            "TEXCOORD_0": 13
          },
          "indices": 14,
          "material": 2,
          "mode": 4
        }
      ]
    },
    {
      "name": "Cube.001_plates_0",
      "primitives": [
        {
          "attributes": {
            "NORMAL": 16,
            "POSITION": 15,
            "TANGENT": 17,
            "TEXCOORD_0": 18
          },
          "indices": 19,
          "material": 3,
          "mode": 4
        }
      ]
    },
    {
      "name": "Cube.002_plates_0",
      "primitives": [
        {
          "attributes": {
            "NORMAL": 21,
            "POSITION": 20,
            "TANGENT": 22,
            "TEXCOORD_0": 23
          },
          "indices": 24,
          "material": 3,
          "mode": 4
        }
      ]
    },
    {
      "name": "Cube.003_plates_0",
      "primitives": [
        {
          "attributes": {
            "NORMAL": 26,
            "POSITION": 25,
            "TANGENT": 27,
            "TEXCOORD_0": 28
          },
          "indices": 29,
          "material": 3,
          "mode": 4
        }
      ]
    },
    {
      "name": "Cube.006_plates_0",
      "primitives": [
        {
          "attributes": {
            "NORMAL": 31,
            "POSITION": 30,
            "TANGENT": 32,
            "TEXCOORD_0": 33
          },
          "indices": 34,
          "material": 3,
          "mode": 4
        }
      ]
    }
  ],
  "nodes": [
    {
      "children": [
        1
      ],
      "matrix": [
        1.0,
        0.0,
        0.0,
        0.0,
        0.0,
        2.220446049250313e-16,
        -1.0,
        0.0,
        0.0,
        1.0,
        2.220446049250313e-16,
        0.0,
        0.0,
        0.0,
        0.0,
        1.0
      ],
      "name": "Sketchfab_model"
    },
    {
      "children": [
        2
      ],
      "matrix": [
        1.0,
        0.0,
        0.0,
        0.0,
        0.0,
        0.0,
        1.0,
        0.0,
        0.0,
        -1.0,
        0.0,
        0.0,
        0.0,
        0.0,
        0.0,
        1.0
      ],
      "name": "e2c38703b45c420db6acb3e6c400209c.fbx"
    },
    {
      "children": [
        3,
        5,
        7,
        9,
        11,
        13,
        15
      ],
      "name": "RootNode"
    },
    {
      "children": [
        4
      ],
      "matrix": [
        100.0,
        0.0,
        0.0,
        0.0,
        0.0,
        -1.629206793918314e-05,
        -99.99999999999868,
        0.0,
        0.0,
        99.99999999999868,
        -1.629206793918314e-05,
        0.0,
        0.0,
        100.0,
        0.0,
        1.0
      ],
      "name": "Cube"
    },
    {
      "mesh": 0,
      "name": "Cube_beacon_0"
    },
    {
      "children": [
        6
      ],
      "matrix": [
        18.585712432861328,
        0.0,
        0.0,
        0.0,
        0.0,
        -3.0279968965429755e-06,
        -18.585712432861083,
        0.0,
        0.0,
        18.585712432861083,
        -3.0279968965429755e-06,
        0.0,
        0.0,
        200.0,
        110.70611572265625,
        1.0
      ],
      "name": "Sphere"
    },
    {
      "mesh": 1,
      "name": "Sphere_eye_0"
    },
    {
      "children": [
        8
      ],
      "matrix": [
        80.85301085146534,
        -1.2135374465276296,
        -24.432564231993457,
        0.0,
        -12.929725250606646,
        -73.7407742303219,
        -39.12483421930765,
        0.0,
        -15.92846883196124,
        31.592462895405557,
        -54.28015199210199,
        0.0,
        -18.89336395263672,
        240.17698669433594,
        59.48860549926758,
        1.0
      ],
      "name": "Cylinder.002"
    },
    {
      "mesh": 2,
      "name": "Cylinder.002_cables_0"
    },
    {
      "children": [
        10
      ],
      "matrix": [
        100.0,
        0.0,
        0.0,
        0.0,
        0.0,
        -1.629206793918314e-05,
        -99.99999999999868,
        0.0,
        0.0,
        99.99999999999868,
        -1.629206793918314e-05,
        0.0,
        60.70836639404297,
        152.15054321289063,
        49.544769287109375,
        1.0
      ],
      "name": "Cube.001"
    },
    {
      "mesh": 3,
      "name": "Cube.001_plates_0"
    },
    {
      "children": [
        12
      ],
      "matrix": [
        100.0,
        0.0,
        0.0,
        0.0,
        0.0,
        -1.629206793918314e-05,
        -99.99999999999868,
        0.0,
        0.0,
        99.99999999999868,
        -1.629206793918314e-05,
        0.0,
        60.86410140991211,
        318.5258483886719,
        49.46522521972656,
        1.0
      ],
      "name": "Cube.002"
    },
    {
      "mesh": 4,
      "name": "Cube.002_plates_0"
    },
    {
      "children": [
        14
      ],
      "matrix": [
        100.0,
        0.0,
        0.0,
        0.0,
        -0.0,
        -1.629206793918314e-05,
        -99.99999999999868,
        0.0,
        0.0,
        99.99999999999868,
        -1.629206793918314e-05,
        0.0,
        -60.734832763671875,
        318.3385009765625,
        49.64750289916992,
        1.0
      ],
      "name": "Cube.003"
    },
    {
      "mesh": 5,
      "name": "Cube.003_plates_0"
    },
    {
      "children": [
        16
      ],
      "matrix": [
        100.0,
        0.0,
        0.0,
        0.0,
        -0.0,
        -1.629206793918314e-05,
        -99.99999999999868,
        0.0,
        0.0,
        99.99999999999868,
        -1.629206793918314e-05,
        0.0,
        -60.63209915161133,
        152.15054321289063,
        49.621028900146484,
        1.0
      ],
      "name": "Cube.006"
    },
    {
      "mesh": 6,
      "name": "Cube.006_plates_0"
    }
  ],
  "samplers": [
    {
      "magFilter": 9729,
      "minFilter": 9987,
      "wrapS": 10497,
      "wrapT": 10497
    }
  ],
  "scene": 0,
  "scenes": [
    {
      "name": "Sketchfab_Scene",
      "nodes": [
        0
      ]
    }
  ],
  "textures": [
    {
      "sampler": 0,
      "source": 0
    },
    {
      "sampler": 0,
      "source": 1
    },
    {
      "sampler": 0,
      "source": 2
    },
    {
      "sampler": 0,
      "source": 3
    },
    {
      "sampler": 0,
      "source": 4
    },
    {
      "sampler": 0,
      "source": 5
    },
    {
      "sampler": 0,
      "source": 6
    },
    {
      "sampler": 0,
      "source": 7
    },
    {
      "sampler": 0,
      "source": 8
    },
    {
      "sampler": 0,
      "source": 9
    },
    {
      "sampler": 0,
      "source": 10
    },
    {
      "sampler": 0,
      "source": 11
    },
    {
      "sampler": 0,
      "source": 12
    },
    {
      "sampler": 0,
      "source": 13
    }
  ]
}
