{
  "accessors": [
    {
      "bufferView": 2,
      "componentType": 5126,
      "count": 9993,
      "max": [
        74.27069091796875,
        26.697973251342773,
        20.669914245605469
      ],
      "min": [
        -74.213470458984375,
        -26.689310073852539,
        -18.953954696655273
      ],
      "type": "VEC3"
    },
    {
      "bufferView": 2,
      "byteOffset": 119916,
      "componentType": 5126,
      "count": 9993,
      "max": [
        0.99999886751174927,
        0.99999910593032837,
        1
      ],
      "min": [
        -0.9999995231628418,
        -0.99999946355819702,
        -1
      ],
      "type": "VEC3"
    },
    {
      "bufferView": 3,
      "componentType": 5126,
      "count": 9993,
      "max": [
        1,
        1,
        1,
        1
      ],
      "min": [
        -0.99999940395355225,
        -1,
        -1,
        -1
      ],
      "type": "VEC4"
    },
    {
      "bufferView": 1,
      "componentType": 5126,
      "count": 9993,
      "max": [
        0.93007701635360718,
        0.99500000476837158
      ],
      "min": [
        0.004999999888241291,
        0.078080996870994568
      ],
      "type": "VEC2"
    },
    {
      "bufferView": 0,
      "componentType": 5125,
      "count": 27642,
      "max": [
        9992
      ],
      "min": [
        0
      ],
      "type": "SCALAR"
    },
    {
      "bufferView": 2,
      "byteOffset": 239832,
      "componentType": 5126,
      "count": 9996,
      "max": [
        70.244895935058594,
        74.234054565429688,
        18.786491394042969
      ],
      "min": [
        -74.213470458984375,
        -74.253829956054688,
        -17.603389739990234
      ],
      "type": "VEC3"
    },
    {
      "bufferView": 2,
      "byteOffset": 359784,
      "componentType": 5126,
      "count": 9996,
      "max": [
        0.9999997615814209,
        0.99999785423278809,
        1
      ],
      "min": [
        -0.99999910593032837,
        -0.99999874830245972,
        -1
      ],
      "type": "VEC3"
    },
    {
      "bufferView": 3,
      "byteOffset": 159888,
      "componentType": 5126,
      "count": 9996,
      "max": [
        0.99999713897705078,
        1,
        1,
        1
      ],
      "min": [
        -1,
        -1,
        -1,
        -1
      ],
      "type": "VEC4"
    },
    {
      "bufferView": 1,
      "byteOffset": 79944,
      "componentType": 5126,
      "count": 9996,
      "max": [
        0.93753701448440552,
        0.99500000476837158
      ],
      "min": [
        0.004999999888241291,
        0.061487000435590744
      ],
      "type": "VEC2"
    },
    {
      "bufferView": 0,
      "byteOffset": 110568,
      "componentType": 5125,
      "count": 27840,
      "max": [
        9995
      ],
      "min": [
        0
      ],
      "type": "SCALAR"
    },
    {
      "bufferView": 2,
      "byteOffset": 479736,
      "componentType": 5126,
      "count": 9985,
      "max": [
        70.274177551269531,
        74.234054565429688,
        18.786430358886719
      ],
      "min": [
        -18.711483001708984,
        -74.26983642578125,
        -8.3961963653564453
      ],
      "type": "VEC3"
    },
    {
      "bufferView": 2,
      "byteOffset": 599556,
      "componentType": 5126,
      "count": 9985,
      "max": [
        1,
        0.99999988079071045,
        1
      ],
      "min": [
        -0.99999988079071045,
        -0.99999910593032837,
        -1
      ],
      "type": "VEC3"
    },
    {
      "bufferView": 3,
      "byteOffset": 319824,
      "componentType": 5126,
      "count": 9985,
      "max": [
        0.99999964237213135,
        1,
        1,
        1
      ],
      "min": [
        -0.99999821186065674,
        -1,
        -1,
        -1
      ],
      "type": "VEC4"
    },
    {
      "bufferView": 1,
      "byteOffset": 159912,
      "componentType": 5126,
      "count": 9985,
      "max": [
        0.98220598697662354,
        0.99500000476837158
      ],
      "min": [
        0.004999999888241291,
        0.017795000225305557
      ],
      "type": "VEC2"
    },
    {
      "bufferView": 0,
      "byteOffset": 221928,
      "componentType": 5125,
      "count": 27426,
      "max": [
        9984
      ],
      "min": [
        0
      ],
      "type": "SCALAR"
    },
    {
      "bufferView": 2,
      "byteOffset": 719376,
      "componentType": 5126,
      "count": 9992,
      "max": [
        67.50775146484375,
        12.011902809143066,
        14.293516159057617
      ],
      "min": [
        -67.32830810546875,
        -67.514236450195312,
        -8.2908115386962891
      ],
      "type": "VEC3"
    },
    {
      "bufferView": 2,
      "byteOffset": 839280,
      "componentType": 5126,
      "count": 9992,
      "max": [
        0.9999774694442749,
        0.9999881386756897,
        1
      ],
      "min": [
        -0.99997735023498535,
        -0.99997514486312866,
        -1
      ],
      "type": "VEC3"
    },
    {
      "bufferView": 3,
      "byteOffset": 479584,
      "componentType": 5126,
      "count": 9992,
      "max": [
        0.99999821186065674,
        1,
        1,
        1
      ],
      "min": [
        -0.99999803304672241,
        -1,
        -1,
        -1
      ],
      "type": "VEC4"
    },
    {
      "bufferView": 1,
      "byteOffset": 239792,
      "componentType": 5126,
      "count": 9992,
      "max": [
        0.98196297883987427,
        0.99500000476837158
      ],
      "min": [
        0.004999999888241291,
        0.018038000911474228
      ],
      "type": "VEC2"
    },
    {
      "bufferView": 0,
      "byteOffset": 331632,
      "componentType": 5125,
      "count": 23586,
      "max": [
        9991
      ],
      "min": [
        0
      ],
      "type": "SCALAR"
    },
    {
      "bufferView": 2,
      "byteOffset": 959184,
      "componentType": 5126,
      "count": 9993,
      "max": [
        46.203483581542969,
        26.74537467956543,
        28.786016464233398
      ],
      "min": [
        -67.33660888671875,
        -66.836997985839844,
        -18.953954696655273
      ],
      "type": "VEC3"
    },
    {
      "bufferView": 2,
      "byteOffset": 1079100,
      "componentType": 5126,
      "count": 9993,
      "max": [
        0.9997444748878479,
        0.99975287914276123,
        0.99999547004699707
      ],
      "min": [
        -0.99996274709701538,
        -0.99997735023498535,
        -0.99994289875030518
      ],
      "type": "VEC3"
    },
    {
      "bufferView": 3,
      "byteOffset": 639456,
      "componentType": 5126,
      "count": 9993,
      "max": [
        0.99989914894104004,
        0.99999862909317017,
        1,
        1
      ],
      "min": [
        -0.99997943639755249,
        -0.99999910593032837,
        -1,
        -1
      ],
      "type": "VEC4"
    },
    {
      "bufferView": 1,
      "byteOffset": 319728,
      "componentType": 5126,
      "count": 9993,
      "max": [
        0.99426001310348511,
        0.99500000476837158
      ],
      "min": [
        0.004999999888241291,
        0.0082550002261996269
      ],
      "type": "VEC2"
    },
    {
      "bufferView": 0,
      "byteOffset": 425976,
      "componentType": 5125,
      "count": 24942,
      "max": [
        9992
      ],
      "min": [
        0
      ],
      "type": "SCALAR"
    },
    {
      "bufferView": 2,
      "byteOffset": 1199016,
      "componentType": 5126,
      "count": 9989,
      "max": [
        66.760726928710938,
        67.47747802734375,
        28.785781860351562
      ],
      "min": [
        -67.33660888671875,
        -26.172040939331055,
        2.0830690860748291
      ],
      "type": "VEC3"
    },
    {
      "bufferView": 2,
      "byteOffset": 1318884,
      "componentType": 5126,
      "count": 9989,
      "max": [
        0.99999433755874634,
        0.99999445676803589,
        0.99999654293060303
      ],
      "min": [
        -0.99999433755874634,
        -0.99999445676803589,
        -0.90712589025497437
      ],
      "type": "VEC3"
    },
    {
      "bufferView": 3,
      "byteOffset": 799344,
      "componentType": 5126,
      "count": 9989,
      "max": [
        0.99999356269836426,
        0.99805617332458496,
        1,
        1
      ],
      "min": [
        -0.99999362230300903,
        -0.99999606609344482,
        -1,
        -1
      ],
      "type": "VEC4"
    },
    {
      "bufferView": 1,
      "byteOffset": 399672,
      "componentType": 5126,
      "count": 9989,
      "max": [
        0.99192899465560913,
        0.99500000476837158
      ],
      "min": [
        0.004999999888241291,
        0.004999999888241291
      ],
      "type": "VEC2"
    },
    {
      "bufferView": 0,
      "byteOffset": 525744,
      "componentType": 5125,
      "count": 21024,
      "max": [
        9988
      ],
      "min": [
        0
      ],
      "type": "SCALAR"
    },
    {
      "bufferView": 2,
      "byteOffset": 1438752,
      "componentType": 5126,
      "count": 1982,
      "max": [
        56.456031799316406,
        66.896560668945312,
        14.343952178955078
      ],
      "min": [
        -67.322654724121094,
        -11.734660148620605,
        -8.2908115386962891
      ],
      "type": "VEC3"
    },
    {
      "bufferView": 2,
      "byteOffset": 1462536,
      "componentType": 5126,
      "count": 1982,
      "max": [
        0.99116677045822144,
        0.99422866106033325,
        0.68139070272445679
      ],
      "min": [
        -0.99116724729537964,
        -0.9911658763885498,
        -1
      ],
      "type": "VEC3"
    },
    {
      "bufferView": 3,
      "byteOffset": 959168,
      "componentType": 5126,
      "count": 1982,
      "max": [
        0.99451589584350586,
        0.99999988079071045,
        0.99999505281448364,
        1
      ],
      "min": [
        -0.99449098110198975,
        -0.97591358423233032,
        -0.99999886751174927,
        -1
      ],
      "type": "VEC4"
    },
    {
      "bufferView": 1,
      "byteOffset": 479584,
      "componentType": 5126,
      "count": 1982,
      "max": [
        0.98633402585983276,
        0.99500000476837158
      ],
      "min": [
        0.004999999888241291,
        0.0098230000585317612
      ],
      "type": "VEC2"
    },
    {
      "bufferView": 0,
      "byteOffset": 609840,
      "componentType": 5125,
      "count": 4536,
      "max": [
        1981
      ],
      "min": [
        0
      ],
      "type": "SCALAR"
    },
    {
      "bufferView": 2,
      "byteOffset": 1486320,
      "componentType": 5126,
      "count": 3560,
      "max": [
        73.5582275390625,
        73.511825561523438,
        28.786016464233398
      ],
      "min": [
        -73.493553161621094,
        -73.552398681640625,
        1.9369020462036133
      ],
      "type": "VEC3"
    },
    {
      "bufferView": 2,
      "byteOffset": 1529040,
      "componentType": 5126,
      "count": 3560,
      "max": [
        0.99999934434890747,
        0.99999922513961792,
        1
      ],
      "min": [
        -0.99990189075469971,
        -0.9999845027923584,
        -1
      ],
      "type": "VEC3"
    },
    {
      "bufferView": 3,
      "byteOffset": 990880,
      "componentType": 5126,
      "count": 3560,
      "max": [
        0.99999529123306274,
        0.99999111890792847,
        0.99999982118606567,
        1
      ],
      "min": [
        -0.99999964237213135,
        -0.99999070167541504,
        -0.99999880790710449,
        1
      ],
      "type": "VEC4"
    },
    {
      "bufferView": 1,
      "byteOffset": 495440,
      "componentType": 5126,
      "count": 3560,
      "max": [
        0.99951201677322388,
        0.25732401013374329
      ],
      "min": [
        0.00048799999058246613,
        0.00048799999058246613
      ],
      "type": "VEC2"
    },
    {
      "bufferView": 0,
      "byteOffset": 627984,
      "componentType": 5125,
      "count": 5340,
      "max": [
        3559
      ],
      "min": [
        0
      ],
      "type": "SCALAR"
    }
  ],
  "asset": {
    "extras": {
      "author": "DJBRANDO420 (https://sketchfab.com/DJBRANDO420)",
      "license": "CC-BY-4.0 (http://creativecommons.org/licenses/by/4.0/)",
      "source": "https://sketchfab.com/3d-models/space-station-277481bf74b64505a7b99e14d2165be9",
      "title": "Space Station"
    },
    "generator": "Sketchfab-8.76.0",
    "version": "2.0"
  },
  "bufferViews": [
    {
      "buffer": 0,
      "byteLength": 649344,
      "byteOffset": 0,
      "name": "floatBufferViews",
      "target": 34963
    },
    {
      "buffer": 0,
      "byteLength": 523920,
      "byteOffset": 649344,
      "byteStride": 8,
      "name": "floatBufferViews",
      "target": 34962
    },
    {
      "buffer": 0,
      "byteLength": 1571760,
      "byteOffset": 1173264,
      "byteStride": 12,
      "name": "floatBufferViews",
      "target": 34962
    },
    {
      "buffer": 0,
      "byteLength": 1047840,
      "byteOffset": 2745024,
      "byteStride": 16,
      "name": "floatBufferViews",
      "target": 34962
    }
  ],
  "buffers": [
    {
      "byteLength": 3792864,
      "uri": "scene.bin"
    }
  ],
  "images": [
    {
      "uri": "textures/PtexMtl0_baseColor.png"
    },
    {
      "uri": "textures/PtexMtl0_normal.png"
    },
    {
      "uri": "textures/PtexMtl1_baseColor.png"
    },
    {
      "uri": "textures/PtexMtl1_normal.png"
    }
  ],
  "materials": [
    {
      "doubleSided": true,
      "name": "PtexMtl0",
      "normalTexture": {
        "index": 1,
        "scale": 1,
        "texCoord": 0
      },
      "pbrMetallicRoughness": {
        "baseColorFactor": [
          1,
          1,
          1,
          1
        ],
        "baseColorTexture": {
          "index": 0,
          "texCoord": 0
        },
        "metallicFactor": 0,
        "roughnessFactor": 0.56878810975609762
      }
    },
    {
      "doubleSided": true,
      "name": "PtexMtl1",
      "normalTexture": {
        "index": 3,
        "scale": 1,
        "texCoord": 0
      },
      "pbrMetallicRoughness": {
        "baseColorFactor": [
          1,
          1,
          1,
          1
        ],
        "baseColorTexture": {
          "index": 2,
          "texCoord": 0
        },
        "metallicFactor": 0,
        "roughnessFactor": 1
      }
    }
  ],
  "meshes": [
    {
      "primitives": [
        {
          "attributes": {
            "NORMAL": 1,
            "POSITION": 0,
            "TANGENT": 2,
            "TEXCOORD_0": 3
          },
          "indices": 4,
          "material": 0,
          "mode": 4
        }
      ]
    },
    {
      "primitives": [
        {
          "attributes": {
            "NORMAL": 6,
            "POSITION": 5,
            "TANGENT": 7,
            "TEXCOORD_0": 8
          },
          "indices": 9,
          "material": 0,
          "mode": 4
        }
      ]
    },
    {
      "primitives": [
        {
          "attributes": {
            "NORMAL": 11,
            "POSITION": 10,
            "TANGENT": 12,
            "TEXCOORD_0": 13
          },
          "indices": 14,
          "material": 0,
          "mode": 4
        }
      ]
    },
    {
      "primitives": [
        {
          "attributes": {
            "NORMAL": 16,
            "POSITION": 15,
            "TANGENT": 17,
            "TEXCOORD_0": 18
          },
          "indices": 19,
          "material": 0,
          "mode": 4
        }
      ]
    },
    {
      "primitives": [
        {
          "attributes": {
            "NORMAL": 21,
            "POSITION": 20,
            "TANGENT": 22,
            "TEXCOORD_0": 23
          },
          "indices": 24,
          "material": 0,
          "mode": 4
        }
      ]
    },
    {
      "primitives": [
        {
          "attributes": {
            "NORMAL": 26,
            "POSITION": 25,
            "TANGENT": 27,
            "TEXCOORD_0": 28
          },
          "indices": 29,
          "material": 0,
          "mode": 4
        }
      ]
    },
    {
      "primitives": [
        {
          "attributes": {
            "NORMAL": 31,
            "POSITION": 30,
            "TANGENT": 32,
            "TEXCOORD_0": 33
          },
          "indices": 34,
          "material": 0,
          "mode": 4
        }
      ]
    },
    {
      "primitives": [
        {
          "attributes": {
            "NORMAL": 36,
            "POSITION": 35,
            "TANGENT": 37,
            "TEXCOORD_0": 38
          },
          "indices": 39,
          "material": 1,
          "mode": 4
        }
      ]
    }
  ],
  "nodes": [
    {
      "children": [
        1
      ],
      "name": "RootNode (gltf orientation matrix)",
      "rotation": [
        -0.70710678118654746,
        -0,
        -0,
        0.70710678118654757
      ]
    },
    {
      "children": [
        2
      ],
      "name": "RootNode (model correction matrix)"
    },
    {
      "children": [
        3,
        4,
        5,
        6,
        7,
        8,
        9,
        10
      ],
      "name": "Untitled.Obj.cleaner.materialmerger.gles"
    },
    {
      "mesh": 0,
      "name": ""
    },
    {
      "mesh": 1,
      "name": ""
    },
    {
      "mesh": 2,
      "name": ""
    },
    {
      "mesh": 3,
      "name": ""
    },
    {
      "mesh": 4,
      "name": ""
    },
    {
      "mesh": 5,
      "name": ""
    },
    {
      "mesh": 6,
      "name": ""
    },
    {
      "mesh": 7,
      "name": ""
    }
  ],
  "samplers": [
    {
      "magFilter": 9729,
      "minFilter": 9987,
      "wrapS": 10497,
      "wrapT": 10497
    }
  ],
  "scene": 0,
  "scenes": [
    {
      "name": "OSG_Scene",
      "nodes": [
        0
      ]
    }
  ],
  "textures": [
    {
      "sampler": 0,
      "source": 0
    },
    {
      "sampler": 0,
      "source": 1
    },
    {
      "sampler": 0,
      "source": 2
    },
    {
      "sampler": 0,
      "source": 3
    }
  ]
}

