{
  "accessors": [
    {
      "bufferView": 2,
      "componentType": 5126,
      "count": 7960,
      "max": [
        0.72492599487304688,
        0.47198501229286194,
        1.6431000232696533
      ],
      "min": [
        -2.3642299175262451,
        -0.142194002866745,
        -1.687559962272644
      ],
      "type": "VEC3"
    },
    {
      "bufferView": 2,
      "byteOffset": 95520,
      "componentType": 5126,
      "count": 7960,
      "max": [
        1,
        1,
        0.99999910593032837
      ],
      "min": [
        -1,
        -1,
        -0.99999910593032837
      ],
      "type": "VEC3"
    },
    {
      "bufferView": 3,
      "componentType": 5126,
      "count": 7960,
      "max": [
        1,
        0.99999946355819702,
        1,
        1
      ],
      "min": [
        -1,
        -1,
        -1,
        -1
      ],
      "type": "VEC4"
    },
    {
      "bufferView": 1,
      "componentType": 5126,
      "count": 7960,
      "max": [
        0.99883097410202026,
        0.99766498804092407
      ],
      "min": [
        0.0022386799100786448,
        0.0021267400588840246
      ],
      "type": "VEC2"
    },
    {
      "bufferView": 0,
      "componentType": 5125,
      "count": 23766,
      "max": [
        7959
      ],
      "min": [
        0
      ],
      "type": "SCALAR"
    },
    {
      "bufferView": 2,
      "byteOffset": 191040,
      "componentType": 5126,
      "count": 42,
      "max": [
        2.4677801132202148,
        0.43810901045799255,
        0.23595400154590607
      ],
      "min": [
        1.1938600540161133,
        -0.01772640086710453,
        -0.25804498791694641
      ],
      "type": "VEC3"
    },
    {
      "bufferView": 2,
      "byteOffset": 191544,
      "componentType": 5126,
      "count": 42,
      "max": [
        0.95098346471786499,
        0.99533289670944214,
        0.99040412902832031
      ],
      "min": [
        -0.1209869384765625,
        -0.87815821170806885,
        -0.99240434169769287
      ],
      "type": "VEC3"
    },
    {
      "bufferView": 3,
      "byteOffset": 127360,
      "componentType": 5126,
      "count": 42,
      "max": [
        0.6537247896194458,
        0.70568996667861938,
        0.99271798133850098,
        1
      ],
      "min": [
        -0.99811893701553345,
        -0.53693622350692749,
        -0.51122075319290161,
        -1
      ],
      "type": "VEC4"
    },
    {
      "bufferView": 1,
      "byteOffset": 63680,
      "componentType": 5126,
      "count": 42,
      "max": [
        0.99485397338867188,
        0.99781399965286255
      ],
      "min": [
        0.0014051400357857347,
        0.0019416899885982275
      ],
      "type": "VEC2"
    },
    {
      "bufferView": 0,
      "byteOffset": 95064,
      "componentType": 5125,
      "count": 150,
      "max": [
        41
      ],
      "min": [
        0
      ],
      "type": "SCALAR"
    },
    {
      "bufferView": 2,
      "byteOffset": 192048,
      "componentType": 5126,
      "count": 4842,
      "max": [
        2.5460100173950195,
        0.53669798374176025,
        0.42884698510169983
      ],
      "min": [
        0.011588600464165211,
        -0.027568899095058441,
        -0.47330901026725769
      ],
      "type": "VEC3"
    },
    {
      "bufferView": 2,
      "byteOffset": 250152,
      "componentType": 5126,
      "count": 4842,
      "max": [
        1,
        1,
        1
      ],
      "min": [
        -1,
        -1,
        -1
      ],
      "type": "VEC3"
    },
    {
      "bufferView": 3,
      "byteOffset": 128032,
      "componentType": 5126,
      "count": 4842,
      "max": [
        1,
        1,
        1,
        1
      ],
      "min": [
        -1,
        -0.99998319149017334,
        -1,
        -1
      ],
      "type": "VEC4"
    },
    {
      "bufferView": 1,
      "byteOffset": 64016,
      "componentType": 5126,
      "count": 4842,
      "max": [
        0.99835497140884399,
        0.99716097116470337
      ],
      "min": [
        0.0030573001131415367,
        0.002754800021648407
      ],
      "type": "VEC2"
    },
    {
      "bufferView": 0,
      "byteOffset": 95664,
      "componentType": 5125,
      "count": 16260,
      "max": [
        4841
      ],
      "min": [
        0
      ],
      "type": "SCALAR"
    },
    {
      "bufferView": 2,
      "byteOffset": 308256,
      "componentType": 5126,
      "count": 3282,
      "max": [
        1.5343400239944458,
        0.59142202138900757,
        0.81738698482513428
      ],
      "min": [
        -2.5339899063110352,
        -0.052898198366165161,
        -0.86184900999069214
      ],
      "type": "VEC3"
    },
    {
      "bufferView": 2,
      "byteOffset": 347640,
      "componentType": 5126,
      "count": 3282,
      "max": [
        1,
        1,
        1
      ],
      "min": [
        -1,
        -1,
        -1
      ],
      "type": "VEC3"
    },
    {
      "bufferView": 3,
      "byteOffset": 205504,
      "componentType": 5126,
      "count": 3282,
      "max": [
        1,
        0.99999988079071045,
        1,
        1
      ],
      "min": [
        -1,
        -0.99999856948852539,
        -0.99999731779098511,
        -1
      ],
      "type": "VEC4"
    },
    {
      "bufferView": 1,
      "byteOffset": 102752,
      "componentType": 5126,
      "count": 3282,
      "max": [
        0.99911701679229736,
        0.99895799160003662
      ],
      "min": [
        0.0023002000525593758,
        0.0012223799712955952
      ],
      "type": "VEC2"
    },
    {
      "bufferView": 0,
      "byteOffset": 160704,
      "componentType": 5125,
      "count": 9624,
      "max": [
        3281
      ],
      "min": [
        0
      ],
      "type": "SCALAR"
    }
  ],
  "asset": {
    "extras": {
      "author": "Mark Bai (https://sketchfab.com/bcfbox)",
      "license": "CC-BY-4.0 (http://creativecommons.org/licenses/by/4.0/)",
      "source": "https://sketchfab.com/3d-models/northstar-fighter-ship-a45170bb77fc4c568b7d94050ecbf54c",
      "title": "Northstar fighter ship"
    },
    "generator": "Sketchfab-7.32.0",
    "version": "2.0"
  },
  "bufferViews": [
    {
      "buffer": 0,
      "byteLength": 199200,
      "byteOffset": 0,
      "name": "floatBufferViews",
      "target": 34963
    },
    {
      "buffer": 0,
      "byteLength": 129008,
      "byteOffset": 199200,
      "byteStride": 8,
      "name": "floatBufferViews",
      "target": 34962
    },
    {
      "buffer": 0,
      "byteLength": 387024,
      "byteOffset": 328208,
      "byteStride": 12,
      "name": "floatBufferViews",
      "target": 34962
    },
    {
      "buffer": 0,
      "byteLength": 258016,
      "byteOffset": 715232,
      "byteStride": 16,
      "name": "floatBufferViews",
      "target": 34962
    }
  ],
  "buffers": [
    {
      "byteLength": 973248,
      "uri": "scene.bin"
    }
  ],
  "images": [
    {
      "uri": "textures/Northstar_L_ji_shen_baseColor.jpeg"
    },
    {
      "uri": "textures/Northstar_L_ji_shen_metallicRoughness.png"
    },
    {
      "uri": "textures/Northstar_L_ji_shen_emissive.jpeg"
    },
    {
      "uri": "textures/Northstar_L_ji_shen_normal.png"
    },
    {
      "uri": "textures/Northstar_L_ji_cang_baseColor.png"
    },
    {
      "uri": "textures/Northstar_L_ji_cang_metallicRoughness.png"
    },
    {
      "uri": "textures/Northstar_L_ji_cang_emissive.jpeg"
    },
    {
      "uri": "textures/Northstar_L_ji_cang_normal.png"
    },
    {
      "uri": "textures/Northstar_L_bo_li_baseColor.png"
    },
    {
      "uri": "textures/Northstar_L_bo_li_metallicRoughness.png"
    },
    {
      "uri": "textures/Northstar_L_bo_li_normal.png"
    },
    {
      "uri": "textures/Northstar_L_chi_bang_baseColor.jpeg"
    },
    {
      "uri": "textures/Northstar_L_chi_bang_metallicRoughness.png"
    },
    {
      "uri": "textures/Northstar_L_chi_bang_normal.png"
    }
  ],
  "materials": [
    {
      "doubleSided": true,
      "emissiveFactor": [
        1,
        1,
        1
      ],
      "emissiveTexture": {
        "index": 2,
        "texCoord": 0
      },
      "name": "Northstar_L_ji_shen",
      "normalTexture": {
        "index": 3,
        "scale": 1,
        "texCoord": 0
      },
      "occlusionTexture": {
        "index": 1,
        "strength": 1,
        "texCoord": 0
      },
      "pbrMetallicRoughness": {
        "baseColorFactor": [
          1,
          1,
          1,
          1
        ],
        "baseColorTexture": {
          "index": 0,
          "texCoord": 0
        },
        "metallicFactor": 1,
        "metallicRoughnessTexture": {
          "index": 1,
          "texCoord": 0
        },
        "roughnessFactor": 1
      }
    },
    {
      "alphaMode": "BLEND",
      "doubleSided": true,
      "emissiveFactor": [
        1,
        1,
        1
      ],
      "emissiveTexture": {
        "index": 6,
        "texCoord": 0
      },
      "name": "Northstar_L_ji_cang",
      "normalTexture": {
        "index": 7,
        "scale": 1,
        "texCoord": 0
      },
      "occlusionTexture": {
        "index": 5,
        "strength": 1,
        "texCoord": 0
      },
      "pbrMetallicRoughness": {
        "baseColorFactor": [
          1,
          1,
          1,
          1
        ],
        "baseColorTexture": {
          "index": 4,
          "texCoord": 0
        },
        "metallicFactor": 1,
        "metallicRoughnessTexture": {
          "index": 5,
          "texCoord": 0
        },
        "roughnessFactor": 1
      }
    },
    {
      "alphaMode": "BLEND",
      "doubleSided": true,
      "emissiveFactor": [
        0,
        0,
        0
      ],
      "name": "Northstar_L_bo_li",
      "normalTexture": {
        "index": 10,
        "scale": 1,
        "texCoord": 0
      },
      "pbrMetallicRoughness": {
        "baseColorFactor": [
          1,
          1,
          1,
          1
        ],
        "baseColorTexture": {
          "index": 8,
          "texCoord": 0
        },
        "metallicFactor": 1,
        "metallicRoughnessTexture": {
          "index": 9,
          "texCoord": 0
        },
        "roughnessFactor": 1
      }
    },
    {
      "doubleSided": true,
      "emissiveFactor": [
        0,
        0,
        0
      ],
      "name": "Northstar_L_chi_bang",
      "normalTexture": {
        "index": 13,
        "scale": 1,
        "texCoord": 0
      },
      "occlusionTexture": {
        "index": 12,
        "strength": 1,
        "texCoord": 0
      },
      "pbrMetallicRoughness": {
        "baseColorFactor": [
          1,
          1,
          1,
          1
        ],
        "baseColorTexture": {
          "index": 11,
          "texCoord": 0
        },
        "metallicFactor": 1,
        "metallicRoughnessTexture": {
          "index": 12,
          "texCoord": 0
        },
        "roughnessFactor": 1
      }
    }
  ],
  "meshes": [
    {
      "name": "defaultMaterial",
      "primitives": [
        {
          "attributes": {
            "NORMAL": 1,
            "POSITION": 0,
            "TANGENT": 2,
            "TEXCOORD_0": 3
          },
          "indices": 4,
          "material": 3,
          "mode": 4
        }
      ]
    },
    {
      "name": "defaultMaterial",
      "primitives": [
        {
          "attributes": {
            "NORMAL": 6,
            "POSITION": 5,
            "TANGENT": 7,
            "TEXCOORD_0": 8
          },
          "indices": 9,
          "material": 2,
          "mode": 4
        }
      ]
    },
    {
      "name": "defaultMaterial",
      "primitives": [
        {
          "attributes": {
            "NORMAL": 11,
            "POSITION": 10,
            "TANGENT": 12,
            "TEXCOORD_0": 13
          },
          "indices": 14,
          "material": 1,
          "mode": 4
        }
      ]
    },
    {
      "name": "defaultMaterial",
      "primitives": [
        {
          "attributes": {
            "NORMAL": 16,
            "POSITION": 15,
            "TANGENT": 17,
            "TEXCOORD_0": 18
          },
          "indices": 19,
          "material": 0,
          "mode": 4
        }
      ]
    }
  ],
  "nodes": [
    {
      "children": [
        1
      ],
      "name": "RootNode (gltf orientation matrix)",
      "rotation": [
        -0.70710678118654746,
        -0,
        -0,
        0.70710678118654757
      ]
    },
    {
      "children": [
        2
      ],
      "name": "RootNode (model correction matrix)"
    },
    {
      "children": [
        3,
        5,
        7,
        9
      ],
      "matrix": [
        1,
        0,
        0,
        0,
        0,
        -4.3711390063094768e-08,
        0.999999999999999,
        0,
        0,
        -0.999999999999999,
        -4.3711390063094768e-08,
        0,
        0,
        0,
        0,
        1
      ],
      "name": "Collada visual scene group"
    },
    {
      "children": [
        4
      ],
      "name": "Northstar_L"
    },
    {
      "mesh": 0,
      "name": "defaultMaterial"
    },
    {
      "children": [
        6
      ],
      "name": "Northstar_L"
    },
    {
      "mesh": 1,
      "name": "defaultMaterial"
    },
    {
      "children": [
        8
      ],
      "name": "Northstar_L"
    },
    {
      "mesh": 2,
      "name": "defaultMaterial"
    },
    {
      "children": [
        10
      ],
      "name": "Northstar_L"
    },
    {
      "mesh": 3,
      "name": "defaultMaterial"
    }
  ],
  "samplers": [
    {
      "magFilter": 9729,
      "minFilter": 9987,
      "wrapS": 10497,
      "wrapT": 10497
    }
  ],
  "scene": 0,
  "scenes": [
    {
      "name": "OSG_Scene",
      "nodes": [
        0
      ]
    }
  ],
  "textures": [
    {
      "sampler": 0,
      "source": 0
    },
    {
      "sampler": 0,
      "source": 1
    },
    {
      "sampler": 0,
      "source": 2
    },
    {
      "sampler": 0,
      "source": 3
    },
    {
      "sampler": 0,
      "source": 4
    },
    {
      "sampler": 0,
      "source": 5
    },
    {
      "sampler": 0,
      "source": 6
    },
    {
      "sampler": 0,
      "source": 7
    },
    {
      "sampler": 0,
      "source": 8
    },
    {
      "sampler": 0,
      "source": 9
    },
    {
      "sampler": 0,
      "source": 10
    },
    {
      "sampler": 0,
      "source": 11
    },
    {
      "sampler": 0,
      "source": 12
    },
    {
      "sampler": 0,
      "source": 13
    }
  ]
}

